<?xml version="1.0" encoding="UTF-8" standalone="no"?>
<!-- Created with Inkscape (http://www.inkscape.org/) -->

<svg
   xmlns:dc="http://purl.org/dc/elements/1.1/"
   xmlns:cc="http://creativecommons.org/ns#"
   xmlns:rdf="http://www.w3.org/1999/02/22-rdf-syntax-ns#"
   xmlns:svg="http://www.w3.org/2000/svg"
   xmlns="http://www.w3.org/2000/svg"
   xmlns:sodipodi="http://sodipodi.sourceforge.net/DTD/sodipodi-0.dtd"
   xmlns:inkscape="http://www.inkscape.org/namespaces/inkscape"
   width="32"
   height="32"
   id="svg4486"
   version="1.1"
   inkscape:version="0.92.3 (2405546, 2018-03-11)"
   viewBox="0 0 32 32"
   sodipodi:docname="close-window-hover.svg">
  <defs
     id="defs4488">
    <filter
       inkscape:collect="always"
       style="color-interpolation-filters:sRGB"
       id="filter4195"
       x="-0.12"
       width="1.24"
       y="-0.12"
       height="1.24">
      <feGaussianBlur
         inkscape:collect="always"
         stdDeviation="0.75"
         id="feGaussianBlur4197" />
    </filter>
  </defs>
  <sodipodi:namedview
     id="base"
     pagecolor="#ffffff"
     bordercolor="#666666"
     borderopacity="1.0"
     inkscape:pageopacity="0.0"
     inkscape:pageshadow="2"
     inkscape:zoom="7.9580785"
     inkscape:cx="12.150162"
     inkscape:cy="14.269865"
     inkscape:document-units="px"
     inkscape:current-layer="layer1-6"
     showgrid="false"
     fit-margin-top="0"
     fit-margin-left="0"
     fit-margin-right="0"
     fit-margin-bottom="0"
     inkscape:window-width="1920"
     inkscape:window-height="1012"
     inkscape:window-x="0"
     inkscape:window-y="40"
     inkscape:window-maximized="1"
     inkscape:pagecheckerboard="false" />
  <metadata
     id="metadata4491">
    <rdf:RDF>
      <cc:Work
         rdf:about="">
        <dc:format>image/svg+xml</dc:format>
        <dc:type
           rdf:resource="http://purl.org/dc/dcmitype/StillImage" />
        <dc:title />
      </cc:Work>
    </rdf:RDF>
  </metadata>
  <g
     inkscape:label="Layer 1"
     inkscape:groupmode="layer"
     id="layer1"
     transform="translate(290.21429,-509.86219)">
    <g
       style="display:inline"
       id="g4131"
       transform="translate(-283.21429,-517.50011)">
      <path
         inkscape:connector-curvature="0"
         id="path4137"
         d="M 85.5,97.5 A 7.4999798,7.4999798 0 0 0 78,105 7.4999798,7.4999798 0 0 0 85.5,112.5 7.4999798,7.4999798 0 0 0 93,105 7.4999798,7.4999798 0 0 0 85.5,97.5 Z m -2.5,4.22266 0.388672,0.38867 L 85.5,104.22266 87.611328,102.11133 88,101.72266 88.777344,102.5 88.388672,102.89062 86.277344,105 88.388672,107.11133 88.777344,107.5 88,108.2793 87.611328,107.89062 85.5,105.7793 83.388672,107.89062 83,108.2793 82.222656,107.5 82.611328,107.11133 84.722656,105 82.611328,102.89062 82.222656,102.5 Z"
         style="color:#000000;display:inline;overflow:visible;visibility:visible;fill:#d64937;fill-opacity:1;fill-rule:nonzero;stroke:none;stroke-width:4.65001774;marker:none;filter:url(#filter4195);enable-background:accumulate"
         transform="matrix(1.3725632,0,0,1.2712974,-108.29132,909.68758)" />
      <g
         style="display:inline;stroke-width:2.07407451"
         transform="matrix(1.6414992,-0.02876258,0.02899652,1.6548504,-224.55167,1028.3967)"
         id="layer1-6"
         inkscape:label="Layer 1"
         inkscape:transform-center-x="32.042911"
         inkscape:transform-center-y="-4.1467296">
        <path
           id="path4141"
           d="m 142.21814,5.6397468 a 6.336786,6.4213478 1.0039288 0 0 -6.33831,6.4227912 6.336786,6.4213478 1.0039288 0 0 6.33532,6.419853 6.336786,6.4213478 1.0039288 0 0 6.3383,-6.422791 6.336786,6.4213478 1.0039288 0 0 -6.33531,-6.4198532 z"
           style="color:#000000;display:inline;overflow:visible;visibility:visible;opacity:1;fill:#d64937;fill-opacity:1;fill-rule:nonzero;stroke:none;stroke-width:30.24084473;stroke-linecap:butt;stroke-linejoin:miter;stroke-miterlimit:4;stroke-dasharray:none;stroke-dashoffset:0;stroke-opacity:1;marker:none;enable-background:accumulate"
           inkscape:connector-curvature="0"
           inkscape:transform-center-x="34.681557"
           inkscape:transform-center-y="-8.3770076" />
        <path
           id="path4170"
           d="m 139.28821,7.793179 2.74472,2.855034 2.85592,-2.7456026 0.73327,0.762746 -2.85593,2.7456026 2.74471,2.855037 -0.76298,0.73351 -2.74471,-2.855037 -2.85593,2.745605 -0.73327,-0.762745 2.85592,-2.745605 -2.7447,-2.8550344 z"
           style="color:#000000;display:inline;overflow:visible;visibility:visible;opacity:1;fill:#ffffff;fill-opacity:1;fill-rule:nonzero;stroke:none;stroke-width:35.12099457;stroke-linecap:butt;stroke-linejoin:miter;stroke-miterlimit:4;stroke-dasharray:none;stroke-dashoffset:0;stroke-opacity:1;marker:none;enable-background:accumulate"
           inkscape:connector-curvature="0"
           inkscape:transform-center-x="-0.13305892"
           inkscape:transform-center-y="-0.37442747" />
      </g>
    </g>
  </g>
</svg>
